<svg width="12" height="16" viewBox="0 0 12 16" fill="none" xmlns="http://www.w3.org/2000/svg">
<path d="M8.8 0H2.4C1.76348 0 1.15303 0.252856 0.702944 0.702944C0.252856 1.15303 0 1.76348 0 2.4V13.6C0 14.2365 0.252856 14.847 0.702944 15.2971C1.15303 15.7471 1.76348 16 2.4 16H8.8C9.43652 16 10.047 15.7471 10.4971 15.2971C10.9471 14.847 11.2 14.2365 11.2 13.6V2.4C11.2 1.76348 10.9471 1.15303 10.4971 0.702944C10.047 0.252856 9.43652 0 8.8 0ZM9.6 13.6C9.6 13.8122 9.51572 14.0157 9.36569 14.1657C9.21566 14.3157 9.01217 14.4 8.8 14.4H2.4C2.18783 14.4 1.98434 14.3157 1.83431 14.1657C1.68429 14.0157 1.6 13.8122 1.6 13.6V2.4C1.6 2.18783 1.68429 1.98434 1.83431 1.83431C1.98434 1.68429 2.18783 1.6 2.4 1.6H8.8C9.01217 1.6 9.21566 1.68429 9.36569 1.83431C9.51572 1.98434 9.6 2.18783 9.6 2.4V13.6Z" fill="#EF463B"/>
</svg>
