<svg width="19" height="20" viewBox="0 0 19 20" fill="none" xmlns="http://www.w3.org/2000/svg">
<path d="M1.01471 0.707106C1.40523 0.316582 2.0384 0.316582 2.42892 0.707106L18.6924 16.9706C19.0829 17.3611 19.0829 17.9943 18.6924 18.3848L17.9853 19.0919C17.5947 19.4824 16.9616 19.4824 16.5711 19.0919L0.3076 2.82843C-0.0829244 2.4379 -0.0829248 1.80474 0.3076 1.41421L1.01471 0.707106Z" fill="#EF463B"/>
<path d="M17.9852 0.707106C17.5947 0.316582 16.9615 0.316582 16.571 0.707106L0.307542 16.9706C-0.0829825 17.3611 -0.0829828 17.9943 0.307541 18.3848L1.01465 19.0919C1.40517 19.4824 2.03834 19.4824 2.42886 19.0919L18.6923 2.82843C19.0828 2.4379 19.0828 1.80474 18.6923 1.41421L17.9852 0.707106Z" fill="#EF463B"/>
</svg>
