<svg width="223" height="21" viewBox="0 0 223 21" fill="none" xmlns="http://www.w3.org/2000/svg">
<path d="M90.17 20.45L122.17 1M80.26 20.45L112.13 1M70.35 20.45L102.08 1M60.45 20.45L92.03 1M50.54 20.45L81.99 1M40.63 20.45L71.94 1M30.72 20.45L61.89 1M20.81 20.45L51.85 1M10.91 20.45L41.8 1M1 20.45L31.75 1M190.17 20.45L222.17 1M180.26 20.45L212.13 1M170.35 20.45L202.08 1M160.45 20.45L192.03 1M150.54 20.45L181.99 1M140.63 20.45L171.94 1M130.72 20.45L161.89 1M120.81 20.45L151.85 1M110.91 20.45L141.8 1M101 20.45L131.75 1" stroke="#00BEDB" stroke-width="0.5"/>
</svg>
