<svg width="116" height="39" viewBox="0 0 116 39" fill="none" xmlns="http://www.w3.org/2000/svg">
<path d="M3.2558 3.29977V17.2128H10.046V20.343H3.2558V38.8378H0L0.0302405 0.16951H10.7259V3.29977H3.2558Z" fill="#323E48"/>
<path d="M20.65 39C16.8096 39 14.6873 36.8594 14.6873 30.8069V8.19495C14.6873 2.13694 16.8087 0 20.65 0C24.4914 0 26.6118 2.13694 26.6118 8.19495V30.8069C26.6118 36.8594 24.4905 39 20.65 39ZM17.8203 6.83233V32.1668C17.4364 37.3625 23.915 37.3625 23.4797 32.1668V6.83233C23.915 1.62928 17.4364 1.62928 17.8203 6.83233Z" fill="#323E48"/>
<path d="M40.3122 21.0147L44.9123 38.857L41.7161 38.8689L37.3212 21.7799H35.2493V38.8387H32.1127V0.200662L37.017 0.169506C40.8446 0.188749 43.7705 2.36692 43.7889 8.24533V13.6876C43.7879 19.7575 40.6128 20.8516 40.3122 21.0147ZM40.6558 7.13562C40.6696 3.91922 39.033 3.29977 37.1059 3.29977H35.2493V18.8127H37.017C38.9862 18.8127 40.6568 18.0146 40.6568 15.0722V7.13562H40.6558Z" fill="#323E48"/>
<path d="M65.753 38.8378L66.0361 7.28775L60.4766 38.7278H58.2526L52.7307 7.33082L53.0129 38.8378H49.8799V0.200676L53.9659 0.150276L59.3816 29.5561L64.7175 0.150276L68.8851 0.200676V38.8378H65.753Z" fill="#323E48"/>
<path d="M74.9312 38.869V0.191528H78.2053V35.7204L85.5233 35.703V38.8525L74.9312 38.869Z" fill="#323E48"/>
<path d="M115.35 25.1511L115.318 30.7941C115.286 36.8631 112.122 38.869 108.315 38.869H102.997V0.191513L108.337 0.189679C112.12 0.187847 114.803 2.27622 114.803 8.30674V12.2755C114.803 16.0847 113.838 17.9981 111.4 18.7403C113.838 19.1316 115.367 21.8697 115.35 25.1511ZM111.55 12.8308V7.03392C111.55 3.95589 110.335 3.13209 108.337 3.13392L106.141 3.13667V17.2788H108.719C110.69 17.2778 111.55 15.6064 111.55 12.8308ZM112.097 24.4446C112.097 22.096 110.94 20.201 108.718 20.201H106.14V35.9018H108.386C110.357 35.9018 112.096 35.1183 112.096 32.1759V24.4446H112.097Z" fill="#323E48"/>
<path d="M93.9015 38.8424H90.1609L84.7563 0.190617H87.9131L89.1007 9.87281H95.0149L96.2437 0.190617H99.3978L93.9015 38.8424ZM89.5039 12.7538L92.0312 33.4671L94.6117 12.7538H89.5039Z" fill="#323E48"/>
</svg>
