<svg width="50" height="50" viewBox="0 0 50 50" fill="none" xmlns="http://www.w3.org/2000/svg">
<path d="M25.409 12.452V22.583H31.109V26.699H25.409V41.962H20.65L20.676 8.28801H31.676V12.452H25.409Z" fill="#333F49"/>
<path d="M25.124 44.965C14.181 44.965 5.301 36.085 5.301 25.121C5.301 14.176 14.181 5.3 25.124 5.3C36.072 5.3 44.953 14.176 44.953 25.121C44.953 36.085 36.072 44.965 25.124 44.965ZM25.125 0.522003C11.543 0.522003 0.520996 11.543 0.520996 25.126C0.520996 38.721 11.543 49.729 25.125 49.729C38.709 49.729 49.729 38.721 49.729 25.126C49.729 11.542 38.709 0.522003 25.125 0.522003Z" fill="#EF463B"/>
</svg>
